# xmcd
#
# Track frame offsets: 
#        150
#        13480
#        25992
#        36687
#        49150
#        60675
#        72930
#        86190
#        96590
#        111157
#        123747
#        136825
#        148347
#        170267
#        190552
#        207137
#        226159
#        247917
#
# Disc length: 3618 seconds
#
# Revision: 0
# Processed by: cddbd v1.5.2PL0 Copyright (c) Steve Scherf et al.
# Submitted via: ExactAudioCopy v0.95b4
#
DISCID=0e0e2012
DTITLE=Ray Conniff - Concert In Rhythm_So Much In Love
DYEAR=1962
DGENRE=Easy Listening
TTITLE0=Favorite Theme From Tchaikovsky's First Piano Concerto
TTITLE1=Favorite Theme From Tchaikovsky's Swan Lake Ballet
TTITLE2=Favorite Theme From Rachmaninoff's Second Piano Concerto
TTITLE3=Favorite Theme From Tchaikovsky's Fifth Symphony
TTITLE4=Early Evening (Theme From The Ray Coniff Suite)
TTITLE5=Favorite Theme From Tchaikovsky's Romeo And Juliet
TTITLE6=Rhapsody In Blue
TTITLE7=I'm Always Chasing Rainbows (From Chopin's "Fantasy Impromptu"
TTITLE7=)
TTITLE8=The Lamp Is Low (From Ravel's "Pavane For A Dead Princess")
TTITLE9=On The Trail (From Grofe's "Grand Canyon Suite")
TTITLE10=My Reverie (From Debussy's "Reverie")
TTITLE11=Schubert's Serenade
TTITLE12=Autumn Leaves/Just Walking In The Rain
TTITLE13=Fall In Love Too Easily/ My Heart Stood Still 
TTITLE14=Dancing On The Ceiling/ Dancing In The Dark 
TTITLE15=I Wish I Didn't Love You So - Bewitched
TTITLE16=Whatever Will Be, Will Be (cue Sera, Sera) - True Love
TTITLE17=Chances Are/ It's Not For Me To Say
EXTD=
EXTT0=
EXTT1=
EXTT2=
EXTT3=
EXTT4=
EXTT5=
EXTT6=
EXTT7=
EXTT8=
EXTT9=
EXTT10=
EXTT11=
EXTT12=
EXTT13=
EXTT14=
EXTT15=
EXTT16=
EXTT17=
PLAYORDER=
